<?xml version="1.0" encoding="utf-8"?>
<!-- Generator: Adobe Illustrator 22.0.1, SVG Export Plug-In . SVG Version: 6.00 Build 0)  -->
<svg version="1.1" id="Layer_1" xmlns="http://www.w3.org/2000/svg" xmlns:xlink="http://www.w3.org/1999/xlink" x="0px" y="0px"
	 viewBox="0 0 112 149" style="enable-background:new 0 0 112 149;" xml:space="preserve">
<style type="text/css">
	.st0{fill:#EAEAEA;}
	.st1{fill:#969696;}
</style>
<g>
	<rect class="st0" width="112" height="149"/>
</g>
<g>
	<path class="st1" d="M25.4,59.4v7h-2.3V55.7h2.3l4.9,6.7v-6.7h2.3v10.7h-2.2L25.4,59.4z"/>
	<path class="st1" d="M34.2,62.5c0-2.2,1.5-4,4.1-4c2.6,0,4.1,1.9,4.1,4c0,2.2-1.5,4.1-4.1,4.1C35.8,66.6,34.2,64.7,34.2,62.5z
		 M40.3,62.5c0-1.2-0.7-2.2-2-2.2s-2,1-2,2.2c0,1.2,0.7,2.3,2,2.3S40.3,63.7,40.3,62.5z"/>
	<path class="st1" d="M48,69.3V58.6h2v1c0.6-0.8,1.4-1.2,2.4-1.2c2,0,3.4,1.5,3.4,4s-1.4,4.1-3.4,4.1c-0.9,0-1.8-0.4-2.4-1.2v3.9H48
		z M51.8,60.3c-0.7,0-1.4,0.4-1.7,0.9v2.7c0.3,0.5,1.1,0.9,1.7,0.9c1.2,0,2-0.9,2-2.3C53.7,61.2,52.9,60.3,51.8,60.3z"/>
	<path class="st1" d="M62.6,61.7c0-1.1-0.6-1.4-1.4-1.4c-0.8,0-1.4,0.4-1.8,0.9v5.2h-2V55.7h2v4c0.5-0.6,1.5-1.2,2.7-1.2
		c1.7,0,2.5,0.9,2.5,2.4v5.5h-2V61.7z"/>
	<path class="st1" d="M66.1,62.5c0-2.2,1.5-4,4.1-4c2.6,0,4.1,1.9,4.1,4c0,2.2-1.5,4.1-4.1,4.1C67.7,66.6,66.1,64.7,66.1,62.5z
		 M72.2,62.5c0-1.2-0.7-2.2-2-2.2s-2,1-2,2.2c0,1.2,0.7,2.3,2,2.3S72.2,63.7,72.2,62.5z"/>
	<path class="st1" d="M76.2,64.4v-4h-1.3v-1.8h1.3v-2.1h2v2.1h1.6v1.8h-1.6v3.5c0,0.5,0.3,0.8,0.7,0.8c0.3,0,0.6-0.1,0.7-0.2
		l0.4,1.5c-0.3,0.3-0.8,0.5-1.7,0.5C77,66.6,76.2,65.8,76.2,64.4z"/>
	<path class="st1" d="M80.7,62.5c0-2.2,1.5-4,4.1-4c2.6,0,4.1,1.9,4.1,4c0,2.2-1.5,4.1-4.1,4.1C82.3,66.6,80.7,64.7,80.7,62.5z
		 M86.8,62.5c0-1.2-0.7-2.2-2-2.2s-2,1-2,2.2c0,1.2,0.7,2.3,2,2.3S86.8,63.7,86.8,62.5z"/>
	<path class="st1" d="M24.6,93.3V82.6h2v1c0.6-0.8,1.4-1.2,2.4-1.2c2,0,3.4,1.5,3.4,4c0,2.6-1.4,4.1-3.4,4.1c-0.9,0-1.8-0.4-2.4-1.2
		v3.9H24.6z M28.4,84.3c-0.7,0-1.4,0.4-1.7,0.9v2.7c0.3,0.5,1.1,0.9,1.7,0.9c1.2,0,2-0.9,2-2.3C30.4,85.2,29.6,84.3,28.4,84.3z"/>
	<path class="st1" d="M34,82.6h2v1.1c0.5-0.7,1.5-1.2,2.5-1.2v2c-0.1,0-0.3-0.1-0.6-0.1c-0.7,0-1.6,0.4-1.9,0.9v5.1h-2V82.6z"/>
	<path class="st1" d="M39.3,86.5c0-2.2,1.5-4,4.1-4c2.6,0,4.1,1.9,4.1,4c0,2.2-1.5,4.1-4.1,4.1C40.8,90.6,39.3,88.7,39.3,86.5z
		 M45.3,86.5c0-1.2-0.7-2.2-2-2.2c-1.3,0-2,1-2,2.2c0,1.2,0.7,2.3,2,2.3C44.6,88.7,45.3,87.7,45.3,86.5z"/>
	<path class="st1" d="M47.8,82.6H50l2,5.4l2-5.4h2.2l-3.1,7.7H51L47.8,82.6z"/>
	<path class="st1" d="M56.9,80.6c0-0.7,0.6-1.2,1.2-1.2c0.7,0,1.2,0.5,1.2,1.2c0,0.7-0.5,1.2-1.2,1.2C57.5,81.8,56.9,81.3,56.9,80.6
		z M57.2,82.6h2v7.7h-2V82.6z"/>
	<path class="st1" d="M66.5,89.4c-0.6,0.8-1.5,1.2-2.4,1.2c-2,0-3.4-1.5-3.4-4c0-2.5,1.5-4.1,3.4-4.1c0.9,0,1.8,0.4,2.4,1.2v-3.9h2
		v10.7h-2V89.4z M66.5,85.1c-0.3-0.5-1.1-0.9-1.8-0.9c-1.2,0-2,0.9-2,2.3c0,1.3,0.8,2.2,2,2.2c0.7,0,1.4-0.4,1.8-0.9V85.1z"/>
	<path class="st1" d="M74.1,82.4c2.3,0,3.9,1.7,3.9,4.3v0.4h-5.7c0.1,1,0.9,1.8,2.2,1.8c0.7,0,1.6-0.3,2.1-0.8l0.9,1.3
		c-0.8,0.7-2,1.1-3.2,1.1c-2.4,0-4.1-1.6-4.1-4.1C70.1,84.3,71.7,82.4,74.1,82.4z M72.2,85.8H76c0-0.7-0.6-1.7-1.9-1.7
		C72.8,84.1,72.3,85,72.2,85.8z"/>
	<path class="st1" d="M84.7,89.4c-0.6,0.8-1.5,1.2-2.4,1.2c-2,0-3.4-1.5-3.4-4c0-2.5,1.5-4.1,3.4-4.1c0.9,0,1.8,0.4,2.4,1.2v-3.9h2
		v10.7h-2V89.4z M84.7,85.1c-0.3-0.5-1.1-0.9-1.8-0.9c-1.2,0-2,0.9-2,2.3c0,1.3,0.8,2.2,2,2.2c0.7,0,1.4-0.4,1.8-0.9V85.1z"/>
</g>
</svg>
